# AST/ASF file generated using VICON BodyLanguage
# -----------------------------------------------
:version 1.10
:name VICON
:units
  mass 1.0
  length 0.45
  angle deg
:documentation
   .ast/.asf automatically generated from VICON data using
   VICON BodyBuilder and BodyLanguage model FoxedUp or BRILLIANT.MOD
:root
   order TX TY TZ RX RY RZ
   axis XYZ
   position 0 0 0  
   orientation 0 0 0 
:bonedata
  begin
     id 1 
     name lhipjoint
     direction 0.714689 -0.624256 0.315473 
     length 2.45343 
     axis 0 0 0  XYZ
  end
  begin
     id 2 
     name lfemur
     direction 0.34202 -0.939693 0  
     length 6.59069  
     axis 0 0 20  XYZ
    dof rx ry rz
    limits (-160.0 20.0)
           (-70.0 70.0)
           (-60.0 70.0)
  end
  begin
     id 3 
     name ltibia
     direction 0.34202 -0.939693 0   
     length 6.73476   
     axis 0 0 20   XYZ
    dof rx
    limits (-10.0 170.0)
  end
  begin
     id 4 
     name lfoot
     direction 0.0718085 -0.197292 0.977711   
     length 1.52607   
     axis -90 7.62852e-016 20   XYZ
    dof rx rz
    limits (-45.0 90.0)
           (-70.0 20.0)
  end
  begin
     id 5 
     name ltoes
     direction 1.53553e-011 -4.22024e-011 1   
     length 0.777832   
     axis -90 7.62852e-016 20   XYZ
    dof rx
    limits (-90.0 20.0)
  end
  begin
     id 6 
     name rhipjoint
     direction -0.727419 -0.612432 0.309497   
     length 2.50079  
     axis 0 0 0  XYZ 
  end
  begin
     id 7 
     name rfemur
     direction -0.34202 -0.939693 0   
     length 6.51665   
     axis 0 0 -20   XYZ
    dof rx ry rz
    limits (-160.0 20.0)
           (-70.0 70.0)
           (-70.0 60.0)
  end
  begin
     id 8 
     name rtibia
     direction -0.34202 -0.939693 0   
     length 6.48919   
     axis 0 0 -20   XYZ
    dof rx
    limits (-10.0 170.0)
 end
 begin
     id 9 
     name rfoot
     direction -0.112205 -0.308282 0.944655   
     length 1.68717  
     axis -90 -7.62852e-016 -20   XYZ
    dof rx rz
    limits (-45.0 90.0)
           (-20.0 70.0)
  end
  begin
     id 10 
     name rtoes
     direction -1.53583e-011 -4.21993e-011 1   
     length 0.846859   
     axis -90 -7.62852e-016 -20   XYZ
    dof rx
    limits (-90.0 20.0)
  end
  begin
     id 11 
     name lowerback
     direction -0.00119603 0.996364 -0.0851956   
     length 1.67242   
     axis 0 0 0   XYZ
    dof rx ry rz
    limits (-20.0 45.0)
           (-30.0 30.0)
           (-30.0 30.0)
  end
  begin
     id 12 
     name upperback
     direction -0.00531001 0.998318 0.0577248   
     length 1.64819   
     axis 0 0 0   XYZ
    dof rx ry rz
    limits (-20.0 45.0)
           (-30.0 30.0)
           (-30.0 30.0)
  end
  begin
     id 13 
     name thorax
     direction -0.00653676 0.995132 0.0983291   
     length 1.67429   
     axis 0 0 0   XYZ
    dof rx ry rz
    limits (-20.0 45.0)
           (-30.0 30.0)
           (-30.0 30.0)
  end
  begin
     id 14 
     name lowerneck
     direction 0.0141424 0.999886 0.00525412   
     length 1.59623   
     axis 0 0 0   XYZ
    dof rx ry rz
    limits (-20.0 45.0)
           (-30.0 30.0)
           (-30.0 30.0)
  end
  begin
     id 15 
     name upperneck
     direction -0.0640064 0.987178 -0.146232   
     length 1.59576   
     axis 0 0 0   XYZ
    dof rx ry rz
    limits (-20.0 45.0)
           (-30.0 30.0)
           (-30.0 30.0)
  end
  begin
     id 16
     name head
     direction -0.0222942 0.998496 -0.0500859  
     length 1.60959  
     axis 0 0 0   XYZ
    dof rx ry rz
    limits (-20.0 45.0)
           (-30.0 30.0)
           (-30.0 30.0)
  end
  begin
     id 17 
     name lclavicle
     direction 0.908549 0.392612 0.142806  
     length 2.80649  
     axis 0 0 0   XYZ
    dof ry rz
    limits (-20.0 10.0)
           (0.0 20.0)
  end
  begin
     id 18 
     name lhumerus
     direction 1 -4.48968e-011 1.08832e-028   
     length 4.2884   
     axis -180 -30 -90   XYZ
    dof rx ry rz
    limits (-60.0 90.0)
           (-90.0 90.0)
           (-90.0 90.0)
  end
  begin
     id 19
     name lradius
     direction 1 -4.48952e-011 -3.02642e-028   
     length 3.06552   
     axis -180 -30 -90   XYZ
    dof rx
    limits (-10.0 170.0)
  end
  begin
     id 20
     name lwrist
     direction 1 -4.49014e-011 1.58672e-027   
     length 1.53276   
     axis -1.65735e-015 90 90   XYZ
    dof ry
    limits (-180.0 0.0)
 end
  begin
     id 21 
     name lhand
     direction 1 -4.48928e-011 3.17344e-027   
     length 0.753045   
     axis -2.02492e-015 90 90   XYZ
    dof rx rz
    limits (-90.0 90.0)
           (-45.0 45.0)
  end
  begin
     id 22 
     name lfingers
     direction 1 -4.48958e-011 6.34687e-027   
     length 0.607124   
     axis -4.04985e-015 90 90   XYZ
    dof rx
    limits (0.0 90.0)
  end
  begin
     id 23
     name lthumb
     direction 0.707107 -6.34905e-011 0.707107   
     length 0.871712   
     axis -90 45 2.85299e-015   XYZ
    dof rx rz
    limits (-45.0 45.0)
           (-45.0 45.0)
  end
  begin
     id 24 
     name rclavicle
     direction -0.885098 0.45949 0.0739604   
     length 2.9478  
     axis 0 0 0   XYZ 
    dof ry rz
    limits (-10.0 20.0)
           (-20.0 0.0)
  end
  begin
     id 25 
     name rhumerus
     direction -1 -4.4898e-011 -2.61739e-027  
     length 4.52172   
     axis -180 30 90   XYZ
    dof rx ry rz
    limits (-90.0 60.0)
           (-90.0 90.0)
           (-90.0 90.0)
  end
  begin
     id 26 
     name rradius
     direction -1 -4.48945e-011 9.02552e-028   
     length 2.8914   
     axis -180 30 90   XYZ
    dof rx
    limits (-10.0 170.0)
  end
  begin
     id 27 
     name rwrist
     direction -1 -4.49018e-011 1.58672e-027   
     length 1.4457   
     axis -1.65735e-015 -90 -90   XYZ
    dof ry
    limits (-180.0 0.0)
  end
  begin
     id 28
     name rhand
     direction -1 -4.48825e-011 3.17344e-027   
     length 0.680541   
     axis -2.02492e-015 -90 -90   XYZ
    dof rx rz
    limits (-90.0 90.0)
           (-45.0 45.0)
  end
  begin
     id 29
     name rfingers
     direction -1 -4.49067e-011 6.34687e-027   
     length 0.54867   
     axis -4.04985e-015 -90 -90   XYZ
    dof rx
    limits (0.0 90.0)
  end
  begin
     id 30
     name rthumb
     direction -0.707107 -6.34833e-011 0.707107   
     length 0.787783   
     axis -90 -45 -2.85299e-015   XYZ
    dof rx rz
    limits (-45.0 45.0)
           (-45.0 45.0)
  end
:hierarchy
  begin
    root lhipjoint rhipjoint lowerback
    lhipjoint lfemur
    lfemur ltibia
    ltibia lfoot
    lfoot ltoes
    rhipjoint rfemur
    rfemur rtibia
    rtibia rfoot
    rfoot rtoes
    lowerback upperback
    upperback thorax
    thorax lowerneck lclavicle rclavicle
    lowerneck upperneck
    upperneck head
    lclavicle lhumerus
    lhumerus lradius
    lradius lwrist
    lwrist lhand lthumb
    lhand lfingers
    rclavicle rhumerus
    rhumerus rradius
    rradius rwrist
    rwrist rhand rthumb
    rhand rfingers
  end

#!OML:ASF E:\emotionWalksFemale\Project 1\Capture day 1\Session 1\Female1.ASF
:FULLY-SPECIFIED
:DEGREES
408
root 10.0665 15.0749 36.8334 187.04 27.5194 -182.655
lowerback 8.75827 -0.639098 -1.64875
upperback -3.42589 -1.00542 0.446454
thorax -8.51696 -0.377487 1.5604
lowerneck -11.1274 -0.29953 -4.90298
upperneck 12.9841 -0.598945 8.2366
head 5.78608 0.159733 3.37703
rclavicle -7.59606e-014 1.86858e-014
rhumerus -44.7234 1.03645 -75.9488
rradius 30.2134
rwrist 13.8172
rhand -10.9329 -56.946
rfingers 7.12502
rthumb 15.0851 -446.376
lclavicle -7.59606e-014 1.86858e-014
lhumerus -13.6353 -12.125 93.502
lradius 36.7789
lwrist -15.7916
lhand -7.7114 -27.6804
lfingers 7.12502
lthumb 18.1865 1.48944
rfemur -37.328 7.12887 16.4248
rtibia 26.9394
rfoot -14.6308 -30.2605
rtoes 10.8516
lfemur 20.7942 -13.0786 -30.2494
ltibia 6.36111e-014
lfoot -8.61812 16.7752
ltoes -31.1591
409
root 10.185 15.0937 36.7225 187.366 27.8418 -182.139
lowerback 8.58983 -0.614455 -1.38325
upperback -3.43898 -0.921709 0.62481
thorax -8.4367 -0.345973 1.58385
lowerneck -11.2758 -0.235108 -4.7292
upperneck 13.0596 -0.510862 8.00053
head 5.82849 0.195004 3.28152
rclavicle -1.34925e-014 3.57812e-014
rhumerus -44.8784 1.20966 -75.9195
rradius 30.0716
rwrist 13.851
rhand -10.8251 -56.6583
rfingers 7.12502
rthumb 15.189 -446.081
lclavicle -1.34925e-014 3.57812e-014
lhumerus -14.3117 -12.2731 93.8397
lradius 37.4082
lwrist -15.3224
lhand -7.62352 -27.5978
lfingers 7.12502
lthumb 18.2711 1.56411
rfemur -36.933 6.94915 17.4273
rtibia 26.9853
rfoot -14.2609 -29.4081
rtoes 11.074
lfemur 21.127 -12.6355 -29.5275
ltibia 9.22361e-014
lfoot -7.5249 16.1771
ltoes -28.1521
410
root 10.3005 15.1168 36.6067 187.718 28.0851 -181.733
lowerback 8.36487 -0.627366 -1.05542
upperback -3.47211 -0.885239 0.744198
thorax -8.34506 -0.342013 1.51638
lowerneck -11.6431 -0.190455 -4.62976
upperneck 13.3168 -0.453872 7.88501
head 5.96826 0.227929 3.2396
rclavicle -1.14798e-014 -3.97569e-015
rhumerus -44.9427 1.24917 -75.9051
rradius 29.9047
rwrist 14.0657
rhand -10.5262 -56.2374
rfingers 7.12502
rthumb 15.4769 -445.638
lclavicle -1.14798e-014 -3.97569e-015
lhumerus -14.9129 -12.2742 94.0705
lradius 37.8701
lwrist -14.5473
lhand -7.20782 -27.5222
lfingers 7.12502
lthumb 18.6709 1.60175
rfemur -36.5474 6.79883 18.2648
rtibia 26.9661
rfoot -13.2577 -28.8969
rtoes 12.0395
lfemur 21.3777 -12.281 -28.9382
ltibia -3.49861e-014
lfoot -5.6224 16.0517
ltoes -28.4431
411
root 10.4195 15.1456 36.488 187.786 28.2981 -181.595
lowerback 8.23786 -0.641455 -0.943834
upperback -3.40981 -0.889697 0.756555
thorax -8.20486 -0.351869 1.46431
lowerneck -12.1613 -0.128353 -4.78543
upperneck 13.7238 -0.377175 8.13016
head 6.18095 0.292857 3.36303
rclavicle -4.29872e-015 -1.70955e-014
rhumerus -44.8566 0.961151 -75.8682
rradius 29.6246
rwrist 14.602
rhand -10.2589 -56.4334
rfingers 7.12502
rthumb 15.7343 -445.814
lclavicle -4.29872e-015 -1.70955e-014
lhumerus -15.425 -12.1253 94.1672
lradius 38.2404
lwrist -13.8856
lhand -6.33312 -27.9562
lfingers 7.12502
lthumb 19.5121 1.08472
rfemur -35.9374 6.57749 18.8718
rtibia 26.9949
rfoot -12.3711 -28.6476
rtoes 9.59253
lfemur 21.7986 -11.9585 -28.6385
ltibia 2.54444e-014
lfoot -3.61587 16.0103
ltoes -28.9285
412
root 10.5442 15.1679 36.3704 187.602 28.5665 -181.596
lowerback 8.27748 -0.673033 -1.1596
upperback -3.36434 -0.956134 0.791894
thorax -8.1731 -0.372954 1.63335
lowerneck -12.1743 -0.063478 -4.66623
upperneck 13.8457 -0.300217 8.03921
head 6.21629 0.331612 3.32274
rclavicle -2.99171e-014 1.19271e-015
rhumerus -44.9435 0.8725 -75.8585
rradius 29.4068
rwrist 15.0846
rhand -10.1733 -56.6377
rfingers 7.12502
rthumb 15.8168 -446.012
lclavicle -2.99171e-014 1.19271e-015
lhumerus -16.3914 -12.2789 94.2559
lradius 38.702
lwrist -13.261
lhand -6.35769 -28.2552
lfingers 7.12502
lthumb 19.4885 0.788144
rfemur -35.1875 6.41931 19.3511
rtibia 27.0982
rfoot -11.5171 -28.6363
rtoes 5.02672
lfemur 22.3609 -11.5785 -28.4683
ltibia 3.18055e-015
lfoot -1.68485 15.9484
ltoes -26.6198
413
root 10.6645 15.1967 36.2567 187.424 28.7986 -181.906
lowerback 8.28524 -0.749588 -1.60271
upperback -3.46548 -1.11077 0.776989
thorax -8.27412 -0.422672 1.89201
lowerneck -11.8695 0.05094 -4.48592
upperneck 13.8406 -0.145674 7.78888
head 6.1515 0.39077 3.22195
rclavicle -4.37823e-014 -2.10712e-014
rhumerus -45.2322 1.15945 -75.9708
rradius 29.3412
rwrist 15.1866
rhand -10.142 -56.7851
rfingers 7.12502
rthumb 15.8469 -446.157
lclavicle -4.37823e-014 -2.10712e-014
lhumerus -17.5954 -12.3523 94.3951
lradius 39.0469
lwrist -12.6014
lhand -6.99587 -28.0943
lfingers 7.12502
lthumb 18.8748 1.00991
rfemur -34.5667 6.21827 19.4588
rtibia 27.1516
rfoot -11.2003 -28.424
rtoes 4.13143
lfemur 22.6721 -11.2886 -28.5485
ltibia 9.54166e-015
lfoot 0.662985 16.0933
ltoes -24.5907
414
root 10.7904 15.226 36.1439 187.317 29.0313 -181.913
lowerback 8.35489 -0.823907 -1.77964
upperback -3.53783 -1.22939 0.805119
thorax -8.38403 -0.467357 2.04213
lowerneck -11.9215 0.177419 -4.57995
upperneck 14.1297 0.0251761 7.88658
head 6.23997 0.483664 3.28996
rclavicle -9.47706e-014 -1.74931e-014
rhumerus -45.4856 1.44148 -76.1233
rradius 29.283
rwrist 15.225
rhand -9.69576 -56.4474
rfingers 7.12502
rthumb 16.2766 -445.784
lclavicle -9.47706e-014 -1.74931e-014
lhumerus -18.6575 -11.9575 94.5119
lradius 38.9015
lwrist -12.3894
lhand -7.30968 -28.0951
lfingers 7.12502
lthumb 18.573 1.03829
rfemur -33.7618 6.28313 19.7856
rtibia 27.0922
rfoot -11.4851 -28.3832
rtoes 4.60703
lfemur 20.2417 -10.8987 -28.4137
ltibia 5.64091
lfoot 0.198589 16.1235
ltoes -22.6939
415
root 10.9153 15.25 36.0281 187.235 29.2126 -181.764
lowerback 8.42538 -0.867542 -1.69662
upperback -3.5584 -1.28093 0.783423
thorax -8.44704 -0.49652 1.98229
lowerneck -12.3046 0.240045 -4.60577
upperneck 14.6608 0.0828813 8.08824
head 6.47059 0.545139 3.38013
rclavicle 3.64521e-014 4.77083e-015
rhumerus -45.7024 1.43142 -76.252
rradius 29.2664
rwrist 15.3943
rhand -8.8486 -55.6144
rfingers 7.12502
rthumb 17.0922 -444.883
lclavicle 3.64521e-014 4.77083e-015
lhumerus -19.6376 -11.6622 94.5449
lradius 38.7089
lwrist -12.5465
lhand -7.30349 -27.8703
lfingers 7.12502
lthumb 18.5789 1.26246
rfemur -32.9262 6.7699 20.0882
rtibia 27.0185
rfoot -11.8545 -28.9601
rtoes 4.95672
lfemur 18.8382 -10.5639 -28.0447
ltibia 9.25219
lfoot 0.8066 16.0658
ltoes -19.9227
416
root 11.0403 15.2765 35.9039 187.098 29.3853 -181.869
lowerback 8.21302 -0.88586 -1.70958
upperback -3.53179 -1.31355 0.656772
thorax -8.29529 -0.518248 1.85487
lowerneck -12.5015 0.287072 -4.46211
upperneck 14.9512 0.112263 8.13484
head 6.59577 0.58203 3.3827
rclavicle 3.67752e-015 6.75868e-015
rhumerus -45.9564 1.58394 -76.6326
rradius 29.4416
rwrist 15.0843
rhand -8.50626 -55.7794
rfingers 7.12502
rthumb 17.4217 -445.019
lclavicle 3.67752e-015 6.75868e-015
lhumerus -20.6642 -11.5239 94.4537
lradius 38.6679
lwrist -12.6937
lhand -7.10893 -27.7122
lfingers 7.12502
lthumb 18.7661 1.40257
rfemur -32.1025 6.40534 20.4184
rtibia 26.858
rfoot -11.6604 -28.6734
rtoes 2.89098
lfemur 17.5456 -10.2744 -27.8659
ltibia 12.4116
lfoot 2.0387 16.2081
ltoes -19.2671
417
root 11.17 15.3016 35.7718 186.762 29.6143 -182.078
lowerback 8.39654 -0.893812 -1.86412
upperback -3.73406 -1.35194 0.550911
thorax -8.61931 -0.523609 1.84297
lowerneck -12.3218 0.312675 -4.36686
upperneck 15.3246 0.131768 8.08806
head 6.68247 0.60163 3.35985
rclavicle -1.22253e-014 7.35503e-015
rhumerus -46.8052 2.17023 -77.1547
rradius 29.8444
rwrist 14.4253
rhand -8.71079 -56.5141
rfingers 7.12502
rthumb 17.2248 -445.771
lclavicle -1.22253e-014 7.35503e-015
lhumerus -22.1522 -10.6676 94.413
lradius 38.4494
lwrist -13.3431
lhand -6.58978 -27.9603
lfingers 7.12502
lthumb 19.2653 1.10542
rfemur -31.0066 6.11764 20.6643
rtibia 26.6485
rfoot -11.3284 -28.1462
rtoes 0.167364
lfemur 16.4069 -8.94955 -27.501
ltibia 15.5466
lfoot 3.52871 15.5703
ltoes -18.4179
